# xmcd
#
# Track frame offsets: 
#        150
#        16974
#        35859
#        58129
#        70672
#        110199
#        123901
#        137516
#        163397
#        190319
#        204663
#        220668
#        247918
#        276696
#        309548
#
# Disc length: 4284 seconds
#
# Revision: 1
# Processed by: cddbd v1.5.2PL0 Copyright (c) Steve Scherf et al.
# Submitted via: ExactAudioCopyFreeDBPlugin 1.0
#
DISCID=ec10ba0f
DTITLE=Sueddeutsche Zeitung - Jazz - New York, New York
DYEAR=2011
DGENRE=Jazz
TTITLE0=Harry Allen - Harlem Nocturne
TTITLE1=Ian Shaw and Cedar Walton: In A New York Minute
TTITLE2=Stéphane Grappelli and Earl Hines: Manhattan
TTITLE3=Fats Waller: Handful Of Keys
TTITLE4=Benny Goodman: Sing, Sing, Sing
TTITLE5=Charlie Parker: Now's The Time
TTITLE6=Art Tatum: Stompin' At The Savoy
TTITLE7=Miles Davis: Milestones
TTITLE8=Thelonious Monk: Caravan
TTITLE9=The Lounge Lizards: Bob And Nico
TTITLE10=Marc Ribot Y Los Cubanos Postizos: La Vida Es Un Sueno
TTITLE11=Weather Report: Birdland
TTITLE12=Eddie Palmieri: Tin Tin Deo
TTITLE13=Eric Reed: Harlemania Suite
TTITLE14=Willie „The Lion“ Smith: Junk Man Rag
EXTD=YEAR: 2011
EXTT0=
EXTT1=
EXTT2=
EXTT3=
EXTT4=
EXTT5=
EXTT6=
EXTT7=
EXTT8=
EXTT9=
EXTT10=
EXTT11=
EXTT12=
EXTT13=
EXTT14=
PLAYORDER=
